<?xml version="1.0" encoding="UTF-8"?>
<svg width="18px" height="18px" viewBox="0 0 18 18" version="1.1" xmlns="http://www.w3.org/2000/svg" xmlns:xlink="http://www.w3.org/1999/xlink">
    <!-- Generator: Sketch 55.2 (78181) - https://sketchapp.com -->
    <title>play-icon</title>
    <desc>Created with Sketch.</desc>
    <g id="Page-1" stroke="none" stroke-width="1" fill="none" fill-rule="evenodd">
        <g id="Test-landing" transform="translate(-373.000000, -599.000000)" fill="#FFFFFF">
            <g id="start">
                <g id="watch-later" transform="translate(357.000000, 584.000000)">
                    <g id="play-icon" transform="translate(16.000000, 15.000000)">
                        <g id="play-button">
                            <path d="M9,0 C4.0374,0 0,4.0374 0,9 C0,13.9626 4.0374,18 9,18 C13.9626,18 18,13.9626 18,9 C18,4.0374 13.9626,0 9,0 Z M13.6689,9.2478 L7.0689,13.7478 C7.0182,13.7823 6.9591,13.8 6.9,13.8 C6.852,13.8 6.8037,13.7886 6.7599,13.7652 C6.6615,13.7133 6.6,13.6113 6.6,13.5 L6.6,4.5 C6.6,4.3887 6.6615,4.2867 6.7599,4.2348 C6.8583,4.1826 6.9771,4.1898 7.0692,4.2522 L13.6692,8.7522 C13.7508,8.808 13.8,8.9007 13.8,9 C13.8,9.0993 13.7508,9.192 13.6689,9.2478 Z" id="Shape" fill-rule="nonzero"></path>
                        </g>
                    </g>
                </g>
            </g>
        </g>
    </g>
</svg>